<svg xmlns="http://www.w3.org/2000/svg" width="16" height="10" viewBox="0 0 16 10">
  <g fill="none">
    <path fill="#000000" d="M8,6.09845568 L13.704633,0.393822723 C14.2297299,-0.131274241 15.0810803,-0.131274241 15.6061773,0.393822723 C16.1312742,0.918919688 16.1312742,1.77027008 15.6061773,2.29536704 L9.90154432,8 L8.70710678,9.19443754 C8.31658249,9.58496183 7.68341751,9.58496183 7.29289322,9.19443754 L6.09845568,8 L0.393822723,2.29536704 C-0.131274241,1.77027008 -0.131274241,0.918919688 0.393822723,0.393822723 C0.918919688,-0.131274241 1.77027008,-0.131274241 2.29536704,0.393822723 L8,6.09845568 Z"/>
    <path fill="#FFFFFF" d="M8,6.09845568 L13.704633,0.393822723 C14.2297299,-0.131274241 15.0810803,-0.131274241 15.6061773,0.393822723 C16.1312742,0.918919688 16.1312742,1.77027008 15.6061773,2.29536704 L9.90154432,8 L8.70710678,9.19443754 C8.31658249,9.58496183 7.68341751,9.58496183 7.29289322,9.19443754 L6.09845568,8 L0.393822723,2.29536704 C-0.131274241,1.77027008 -0.131274241,0.918919688 0.393822723,0.393822723 C0.918919688,-0.131274241 1.77027008,-0.131274241 2.29536704,0.393822723 L8,6.09845568 Z"/>
  </g>
</svg>
