<svg xmlns="http://www.w3.org/2000/svg" width="18" height="18" viewBox="0 0 18 18" xmlns:xlink="http://www.w3.org/1999/xlink">
  <defs>
    <path id="b" d="M8,6.09845568 L13.704633,0.393822723 C14.2297299,-0.131274241 15.0810803,-0.131274241 15.6061773,0.393822723 C16.1312742,0.918919688 16.1312742,1.77027008 15.6061773,2.29536704 L9.90154432,8 L15.6061773,13.704633 C16.1312742,14.2297299 16.1312742,15.0810803 15.6061773,15.6061773 C15.0810803,16.1312742 14.2297299,16.1312742 13.704633,15.6061773 L8,9.90154432 L2.29536704,15.6061773 C1.77027008,16.1312742 0.918919688,16.1312742 0.393822723,15.6061773 C-0.131274241,15.0810803 -0.131274241,14.2297299 0.393822723,13.704633 L6.09845568,8 L0.393822723,2.29536704 C-0.131274241,1.77027008 -0.131274241,0.918919688 0.393822723,0.393822723 C0.918919688,-0.131274241 1.77027008,-0.131274241 2.29536704,0.393822723 L8,6.09845568 Z"/>
    <filter id="a" width="118.8%" height="118.8%" x="-9.4%" y="-9.4%" filterUnits="objectBoundingBox">
      <feOffset in="SourceAlpha" result="shadowOffsetOuter1"/>
      <feGaussianBlur stdDeviation=".5" in="shadowOffsetOuter1" result="shadowBlurOuter1"/>
      <feColorMatrix values="0 0 0 0 0 0 0 0 0 0 0 0 0 0 0 0 0 0 0.753934556 0" in="shadowBlurOuter1"/>
    </filter>
  </defs>
  <g fill="none" fill-rule="evenodd" transform="translate(1 1)">
    <use fill="black" filter="url(#a)" xlink:href="#b"/>
    <use fill="#FFFFFF" xlink:href="#b"/>
  </g>
</svg>
