<?xml version="1.0" standalone="no"?>
<!DOCTYPE svg PUBLIC "-//W3C//DTD SVG 20010904//EN"
 "http://www.w3.org/TR/2001/REC-SVG-20010904/DTD/svg10.dtd">
<svg version="1.0" xmlns="http://www.w3.org/2000/svg"
 width="628.000000pt" height="628.000000pt" viewBox="0 0 628.000000 628.000000"
 preserveAspectRatio="xMidYMid meet">
<metadata>
Created by potrace 1.11, written by Peter Selinger 2001-2013
</metadata>
<g transform="translate(0.000000,628.000000) scale(0.100000,-0.100000)"
fill="#000000" stroke="none">
<path d="M3080 5082 c-14 -1 -32 -5 -40 -8 -13 -5 -13 -7 0 -17 24 -19 67 -89
80 -131 20 -64 7 -158 -44 -311 -25 -77 -77 -203 -115 -280 -37 -77 -101 -209
-141 -292 -41 -84 -76 -153 -79 -153 -3 0 -15 -18 -25 -40 -10 -22 -27 -48
-37 -59 -11 -11 -19 -25 -19 -31 0 -5 -4 -10 -10 -10 -5 0 -10 -4 -10 -10 0
-12 -170 -254 -182 -258 -4 -2 -8 -8 -8 -13 0 -5 -17 -31 -37 -57 -21 -27 -49
-64 -63 -82 -50 -68 -205 -266 -226 -290 -12 -14 -44 -49 -71 -79 -56 -63
-155 -159 -198 -193 -16 -12 -36 -28 -43 -35 -27 -26 -181 -123 -262 -165
-143 -74 -188 -87 -275 -82 -41 3 -87 9 -100 14 -20 8 -27 6 -35 -9 -8 -17 -1
-26 53 -64 100 -71 113 -75 298 -75 186 1 199 4 292 74 99 76 365 339 472 469
22 26 45 53 50 59 6 6 26 31 45 56 19 24 42 52 50 60 33 33 127 157 156 205
30 50 75 148 78 172 1 7 14 25 29 40 106 109 200 260 304 487 81 178 81 179
106 208 13 14 32 44 43 65 10 21 22 40 25 43 3 3 10 13 16 23 8 16 44 -17 264
-243 140 -144 286 -291 324 -328 39 -37 223 -221 410 -409 308 -310 347 -346
417 -383 43 -23 92 -44 110 -46 18 -3 44 -6 57 -8 22 -3 141 8 186 17 29 6
106 19 135 23 14 2 39 5 55 7 17 3 62 8 100 12 136 12 160 16 167 28 4 7 8 14
8 17 0 3 -62 36 -138 73 -140 70 -204 103 -327 171 -38 22 -88 49 -110 61
-200 110 -655 395 -663 416 -2 5 -8 9 -12 9 -12 0 -295 204 -320 230 -3 3 -25
21 -50 40 -46 35 -201 163 -231 190 -9 8 -58 53 -110 100 -51 47 -121 112
-156 145 l-63 60 15 29 c9 16 37 81 62 145 40 99 47 126 47 183 -1 59 -4 71
-35 113 -58 81 -145 127 -219 117z"/>
<path d="M1909 4214 c-57 -18 -99 -38 -99 -46 0 -4 -5 -8 -11 -8 -5 0 -47 -26
-92 -57 -45 -31 -111 -77 -147 -101 -78 -55 -173 -124 -180 -133 -12 -16 -143
-119 -151 -119 -11 0 -30 68 -43 156 -10 62 -34 136 -56 172 -20 33 -39 42
-41 20 -1 -29 -12 -101 -36 -238 -34 -199 -16 -396 41 -453 70 -70 128 -53
185 53 13 25 32 53 43 63 10 10 18 21 18 25 0 4 17 25 36 47 20 22 50 60 67
85 93 137 200 239 318 302 69 37 169 73 169 61 0 -10 -140 -285 -153 -303 -11
-14 -24 -35 -51 -85 -6 -11 -13 -22 -16 -25 -16 -15 -154 -236 -170 -273 -23
-51 -35 -117 -27 -149 10 -40 60 -85 129 -117 36 -17 74 -31 83 -31 18 0 46
27 90 85 16 22 34 45 40 51 19 20 140 194 167 242 52 89 196 377 211 422 8 25
18 62 21 82 3 21 7 43 8 49 2 6 -2 13 -7 15 -6 3 -51 -47 -100 -110 -91 -116
-110 -134 -118 -113 -5 15 31 197 42 212 15 19 34 89 33 123 -3 85 -98 130
-203 96z"/>
<path d="M3003 3534 c-32 -7 -76 -15 -98 -18 -22 -3 -58 -10 -80 -15 -22 -6
-42 -10 -45 -10 -3 0 -6 -6 -8 -14 -2 -7 15 -26 37 -41 81 -56 127 -148 119
-236 -5 -52 -44 -117 -169 -285 -82 -109 -144 -179 -271 -305 -89 -87 -98
-100 -98 -133 0 -61 34 -120 83 -144 56 -26 79 -24 232 28 72 24 140 47 152
50 38 12 61 -18 89 -116 48 -166 55 -222 37 -307 -8 -34 -16 -74 -19 -88 -20
-99 -38 -160 -58 -195 -23 -40 -26 -98 -6 -119 5 -5 35 20 70 55 33 35 96 100
139 144 66 67 84 94 114 165 57 136 61 193 18 268 -37 68 -85 109 -188 163
-72 37 -88 50 -88 69 0 13 7 24 15 26 21 4 58 12 110 24 25 5 56 12 70 14 20
3 103 22 225 50 6 1 44 10 86 20 99 23 120 42 112 98 -7 57 -26 83 -77 107
-95 47 -286 25 -389 -43 -69 -45 -83 -51 -212 -85 -60 -16 -150 -41 -200 -56
-174 -53 -191 -44 -89 52 38 36 101 95 139 132 132 124 217 196 333 283 144
108 184 144 206 185 36 71 15 135 -77 228 -62 64 -65 66 -110 63 -25 -2 -72
-8 -104 -14z"/>
</g>
</svg>
