<?xml version="1.0" encoding="utf-8"?>
<!-- Generator: Adobe Illustrator 19.1.0, SVG Export Plug-In . SVG Version: 6.00 Build 0)  -->
<svg version="1.1" id="圖層_1" xmlns="http://www.w3.org/2000/svg" xmlns:xlink="http://www.w3.org/1999/xlink" x="0px" y="0px"
	 viewBox="-106 356.3 286.3 313.7" style="enable-background:new -106 356.3 286.3 313.7;" xml:space="preserve">
<style type="text/css">
	.st0{fill:none;}
	.st1{fill:#28BFAD;}
</style>
<g>
	<g>
		<path class="st0" d="M-75.4,653c0-100,0-200,0-300c75,0,150,0,225,0c0,100,0,200,0,300C74.6,653-0.4,653-75.4,653z M40.4,445.4
			c1.2-2.6,2.5-5.3,3.6-8.2c1.8-4.9,4.6-9.5,0.7-15.1c-3.2-4.7-8.8-7.5-13.6-4.9c4.6,3.7,6,8.7,4.9,14.1s-3.2,10.6-5.1,15.9
			c-0.9,2.5-2.5,4.8-3.6,7.2c-4,8-7.2,16.5-12,24c-7.2,11.2-15.2,21.9-23.4,32.5c-6.4,8.3-13.1,16.5-21.8,23
			c-6.8,5.2-14,9.2-22,12.1c-0.9,0.3-2,0.3-3,0.2c-2.7-0.3-5.4-0.7-8.2-1c-0.2,0.5-0.4,0.9-0.7,1.4c3.2,2,6.1,5.2,9.5,5.8
			c5.7,0.9,11.7,0.3,17.5,0c2.5-0.1,10.9-7.3,14-10.7c5.7-6.2,12.1-11.8,17.2-18.4c6.2-8.1,14.4-15.1,17.1-25.6
			c0.2-0.6,1-1.1,1.5-1.7c6.6-7.3,11.3-15.8,15.2-24.6c1.6-3.7,2.9-7.3,5.4-10.5c1.6-2,2.8-4.5,4.3-7c1.5,1.4,2.4,2.2,3.3,3.1
			c8.5,8.7,16.9,17.5,25.4,26.1c3.6,3.6,7.5,6.9,11.1,10.5c8.4,8.5,16.7,17.3,25.2,25.7c2.2,2.1,5.1,3.7,8,4.9
			c5.3,2.4,10.7,1.3,16.2,0.2c7-1.4,14.3-1.8,21.4-2.6c0.2-0.5,0.5-1,0.7-1.5C109.5,500.5,72.1,477.2,40.4,445.4z M18.6,495.6
			c0,0.5,0,0.9,0,1.4c1.1,0.8,2.2,1.5,3.2,2.4c3.6,3,7.1,9.3,3.3,15.1c-6.7,10.5-14.4,20.1-23.8,28.2c-3,2.6-1.4,5.5-0.7,8.1
			c0.4,1.3,2.4,2.4,3.8,3.1c2.9,1.5,5.7,0.1,8.4-0.9c3-1,6.1-1.8,9-3.1c2.8-1.3,4.2,0,4.7,2.3c1.8,6.6,5,13.1,2.4,20.4
			c-1.5,4.4-1,9.5-4.3,13.5c-0.7,0.8,0,2.9,0.1,4.4c0.4,0.2,0.8,0.3,1.2,0.5c3.2-3.4,6.5-6.9,9.7-10.3c1.3-1.4,3.1-2.4,3.9-4
			c1.7-3.8,3.7-7.8,4.2-11.9c0.7-5-6.1-12.3-11.1-13.7c-1.7-0.5-3.1-1.6-4.7-2.5c0.1-0.7,0.2-1.3,0.3-2c9.3-2,18.5-4,27.8-6.1
			c1.3-0.3,3.5-1.7,3.5-2.5c-0.2-2.9-0.7-5.8-3.9-7.3c-6-2.7-16.5-1-21.2,3.3c-1.3,1.1-3.2,1.6-4.9,2.1c-2.3,0.7-4.7,1.1-7,1.8
			c-4.8,1.4-9.6,2.8-14.3,4.2c-0.2-0.5-0.5-1-0.7-1.5c6.4-6,12.6-12.2,19.2-17.9c4.4-3.9,9.4-7.1,14-10.7c6.3-4.8,6.5-9.8,0.8-15.6
			c-1.4-1.4-3.3-3.7-4.8-3.6C30.5,493.3,24.6,494.6,18.6,495.6z M-23.2,467.7c-2.1,4.2-4.2,8.5-6.4,12.7c-2,3.6-4.2,7.1-6.4,10.6
			c-2.5,4-5.6,7.8-7.4,12.1c-2.3,5.4-0.7,9.3,3.3,11.4c1.4,0.7,2.9,1.2,4.2,1.9c1.8,1,3.2,1,4.5-0.8c3.8-5.2,8.1-10.2,11.5-15.7
			c4.1-6.8,7.6-14,11-21.2c1.3-2.7,1.6-5.9,2.3-8.8c-0.4-0.1-0.8-0.3-1.1-0.4c-3.2,4-6.4,8.1-9.5,12.1c-0.4-0.2-0.8-0.4-1.2-0.7
			c0.9-3.8,1-8.1,2.8-11.4c2.9-5.3,1-10.5-4.9-10.7c-2.5-0.1-5.4,0.7-7.6,2c-4.7,2.7-9,5.9-13.4,8.9c-2.5,1.7-5,3.4-7.3,5.3
			c-3.3,2.6-6.6,5.3-9.8,8c-2.9-6.1-1-13.3-6.6-19c-0.9,6.1-1.7,11.4-2.5,16.6c-0.1,0.5-0.3,0.9-0.4,1.4c0,3.2-0.3,6.4,0,9.6
			c0.2,2.4,0.8,4.9,2,7c0.9,1.6,2.9,3,4.6,3.4c1.2,0.2,3-1.3,4.1-2.5c1.2-1.3,1.6-3.2,2.6-4.6c1.8-2.5,4.1-4.6,5.8-7.2
			C-42.8,478.4-35.5,470.4-23.2,467.7z"/>
		<path class="st1" d="M40.4,445.4c31.7,31.8,69.1,55.1,109,74.7c-0.2,0.5-0.5,1-0.7,1.5c-7.1,0.8-14.4,1.2-21.4,2.6
			c-5.5,1.1-10.9,2.2-16.2-0.2c-2.8-1.3-5.8-2.8-8-4.9c-8.6-8.4-16.8-17.2-25.2-25.7c-3.6-3.6-7.5-6.9-11.1-10.5
			c-8.5-8.6-16.9-17.4-25.4-26.1c-0.9-0.9-1.8-1.7-3.3-3.1c-1.5,2.5-2.7,5-4.3,7c-2.5,3.2-3.8,6.8-5.4,10.5
			c-3.9,8.9-8.6,17.3-15.2,24.6c-0.5,0.5-1.3,1-1.5,1.7C9,508,0.8,515-5.4,523.1c-5.1,6.6-11.5,12.2-17.2,18.4
			c-3.1,3.4-11.5,10.5-14,10.7c-5.8,0.3-11.8,0.9-17.5,0c-3.4-0.6-6.4-3.8-9.5-5.8c0.2-0.5,0.4-0.9,0.7-1.4c2.7,0.4,5.4,0.8,8.2,1
			c1,0.1,2.1,0.2,3-0.2c8-2.8,15.1-6.9,22-12.1c8.6-6.5,15.3-14.6,21.8-23c8.1-10.6,16.2-21.3,23.4-32.5c4.8-7.5,8-15.9,12-24
			c1.2-2.4,2.7-4.7,3.6-7.2c1.9-5.2,3.9-10.5,5.1-15.9c1.1-5.3-0.4-10.4-4.9-14.1c4.8-2.6,10.4,0.3,13.6,4.9
			c3.8,5.6,1.1,10.2-0.7,15.1C43,440.1,41.6,442.8,40.4,445.4z"/>
		<path class="st1" d="M18.6,495.6c6-1,11.9-2.4,17.9-2.9c1.5-0.1,3.4,2.2,4.8,3.6c5.8,5.8,5.5,10.8-0.8,15.6
			c-4.7,3.6-9.6,6.8-14,10.7c-6.6,5.8-12.8,11.9-19.2,17.9c0.2,0.5,0.5,1,0.7,1.5c4.8-1.4,9.5-2.8,14.3-4.2c2.3-0.7,4.7-1.1,7-1.8
			c1.7-0.5,3.7-1,4.9-2.1c4.7-4.3,15.3-6,21.2-3.3c3.2,1.5,3.8,4.5,3.9,7.3c0,0.8-2.1,2.2-3.5,2.5c-9.2,2.2-18.5,4.1-27.8,6.1
			c-0.1,0.7-0.2,1.3-0.3,2c1.6,0.8,3,2,4.7,2.5c5.1,1.4,11.8,8.8,11.1,13.7c-0.5,4.1-2.5,8.1-4.2,11.9c-0.7,1.6-2.6,2.7-3.9,4
			c-3.3,3.4-6.5,6.9-9.7,10.3c-0.4-0.2-0.8-0.3-1.2-0.5c-0.1-1.5-0.8-3.5-0.1-4.4c3.3-4,2.8-9,4.3-13.5c2.5-7.3-0.7-13.7-2.4-20.4
			c-0.6-2.2-2-3.5-4.7-2.3c-2.9,1.3-6,2.1-9,3.1c-2.7,0.9-5.5,2.4-8.4,0.9c-1.5-0.8-3.4-1.8-3.8-3.1c-0.8-2.6-2.3-5.5,0.7-8.1
			c9.4-8.1,17.1-17.7,23.8-28.2c3.8-5.9,0.3-12.2-3.3-15.1c-1-0.8-2.1-1.6-3.2-2.4C18.6,496.5,18.6,496.1,18.6,495.6z"/>
		<path class="st1" d="M-23.2,467.7c-12.2,2.7-19.6,10.7-25.9,20.1c-1.7,2.5-4,4.7-5.8,7.2c-1,1.4-1.5,3.3-2.6,4.6
			c-1.1,1.2-2.9,2.7-4.1,2.5c-1.7-0.4-3.7-1.8-4.6-3.4c-1.2-2-1.8-4.6-2-7c-0.3-3.2-0.1-6.4,0-9.6c0-0.5,0.3-0.9,0.4-1.4
			c0.8-5.2,1.6-10.5,2.5-16.6c5.6,5.7,3.7,12.9,6.6,19c3.2-2.6,6.5-5.4,9.8-8c2.4-1.9,4.9-3.6,7.3-5.3c4.4-3,8.8-6.2,13.4-8.9
			c2.2-1.3,5.1-2.1,7.6-2c6,0.2,7.8,5.4,4.9,10.7c-1.8,3.3-1.9,7.6-2.8,11.4c0.4,0.2,0.8,0.4,1.2,0.7c3.2-4,6.4-8.1,9.5-12.1
			c0.4,0.1,0.8,0.3,1.1,0.4c-0.7,3-1,6.1-2.3,8.8c-3.4,7.2-6.9,14.4-11,21.2c-3.3,5.5-7.6,10.5-11.5,15.7c-1.3,1.8-2.7,1.8-4.5,0.8
			c-1.3-0.8-2.9-1.2-4.2-1.9c-4-2.1-5.5-5.9-3.3-11.4c1.8-4.3,4.9-8.1,7.4-12.1c2.2-3.5,4.4-7,6.4-10.6
			C-27.4,476.2-25.4,471.9-23.2,467.7z"/>
	</g>
</g>
</svg>
