<?xml version="1.0" encoding="UTF-8"?>
<svg width="979px" height="329px" viewBox="0 0 979 329" version="1.1" xmlns="http://www.w3.org/2000/svg" xmlns:xlink="http://www.w3.org/1999/xlink">
    <!-- Generator: Sketch 48.2 (47327) - http://www.bohemiancoding.com/sketch -->
    <title>yahoo</title>
    <desc>Created with Sketch.</desc>
    <defs></defs>
    <g id="Page-2" stroke="none" stroke-width="1" fill="none" fill-rule="evenodd">
        <g id="yahoo" fill-rule="nonzero">
            <rect id="Rectangle-path" fill="#6C139A" x="0" y="0" width="979" height="329"></rect>
            <g id="Group-2" transform="translate(304.000000, 120.000000)" fill="#FFFFFF">
                <polygon id="Shape" points="49.1755357 90 34.7001327 90 34.7001327 57.1310626 0 11 15.0882963 11 45.1480584 51.0455821 75.0036472 11 83 11 49.1755357 56.2701002"></polygon>
                <path d="M87.4006512,21 L57,80 L62.6579804,80 L72.1856677,60.952756 L99.5667753,60.952756 L108.771987,80 L120,80 L90.3615635,21 L87.4006512,21 Z M86.0521174,33.9788386 L97.456026,57.2362206 L74.2671008,57.2362206 L86.0521174,33.9788386 Z" id="Shape"></path>
                <polygon id="Shape" points="123 86 123 19 135.477273 19 135.477273 49.4965517 171.522727 49.4965517 171.522727 19 184 19 184 86 171.522727 86 171.522727 53.6551724 135.477273 53.6551724 135.477273 86"></polygon>
                <path d="M303.364685,15.8146655 C279.142117,16.3432155 263.445907,33.4135196 263.445907,51.8492124 C263.445907,75.7699209 286.732744,88 304.526806,88 C322.743166,88 345.317176,75.8515451 345.317176,52.1398137 C345.317176,27.0792925 323.233791,15.8146655 304.526806,15.8146655 C304.138054,15.8146655 303.749171,15.8062962 303.364685,15.8146655 Z M304.410594,19.127519 C320.006451,19.127519 330.79069,31.0503135 330.79069,51.7329718 C330.79069,75.8617137 317.072221,84.1640642 304.526806,84.1640642 C287.589677,84.1640642 277.856178,71.5535676 277.856178,51.3842505 C277.856178,32.7196756 287.631852,19.127519 304.410594,19.127519 Z M224.514928,23.7190177 C205.768464,23.7190177 190,36.7288328 190,53.9996611 C190,73.0576308 208.230826,84.7452665 224.514928,84.7452665 C244.158686,84.7452665 258.855539,70.7992551 258.855539,54.5808637 C258.855539,29.159453 234.21643,23.7190177 224.514928,23.7190177 Z M224.456822,26.6250296 C235.407318,26.6250296 246.769502,33.744754 246.769502,54.0577814 C246.769502,73.4250253 236.261494,81.374293 224.573034,81.374293 C211.940923,81.374293 202.608989,73.4803139 202.608989,53.9996611 C202.608989,32.3345293 215.261706,26.6250296 224.456822,26.6250296 Z M350.568041,73.0414735 L350.023756,83.6931414 L360.2504,84.6811856 L361.664791,73.5391501 L350.568041,73.0414735 Z M362.848345,64.2155902 L371,0 L354.033067,5.23082157 L351.04306,63.7453554 L362.848345,64.2155902 Z" id="Shape"></path>
            </g>
        </g>
    </g>
</svg>