<svg xmlns="http://www.w3.org/2000/svg" width="1627" height="781" viewBox="0 0 1627 781">
  <g fill="none" fill-rule="evenodd">
    <rect width="1627" height="781" fill="#6C139A"/>
    <polygon fill="#FFFFFF" fill-rule="nonzero" points="446.246 511.099 407.465 511.099 407.465 421.574 314.5 295.927 354.923 295.927 435.456 404.999 515.442 295.927 536.865 295.927 446.246 419.229"/>
    <path fill="#FFFFFF" fill-rule="nonzero" d="M548.123856,325.967321 L467.043555,484.844055 L482.133717,484.844055 L507.544612,433.553141 L580.571615,433.553141 L605.122448,484.844055 L635.068211,484.844055 L556.020781,325.967321 L548.123856,325.967321 Z M544.527238,360.917075 L574.942124,423.545158 L513.095915,423.545158 L544.527238,360.917075 Z"/>
    <polygon fill="#FFFFFF" fill-rule="nonzero" points="647.656 499.84 647.656 318.445 681.433 318.445 681.433 401.011 779.011 401.011 779.011 318.445 812.788 318.445 812.788 499.84 779.011 499.84 779.011 412.27 681.433 412.27 681.433 499.84"/>
    <path fill="#FFFFFF" fill-rule="nonzero" d="M1131.47981 312.04997C1066.29202 313.472054 1024.05037 359.400365 1024.05037 409.002307 1024.05037 473.361895 1086.71992 506.267394 1134.60731 506.267394 1183.63119 506.267394 1244.38238 473.581508 1244.38238 409.784181 1244.38238 342.357883 1184.95156 312.04997 1134.60731 312.04997 1133.5611 312.04997 1132.51454 312.027452 1131.47981 312.04997zM1134.29456 320.96333C1176.26614 320.96333 1205.28869 353.042068 1205.28869 408.689557 1205.28869 473.608867 1168.36954 495.946661 1134.60731 495.946661 1089.0261 495.946661 1062.8313 462.017634 1062.8313 407.751309 1062.8313 357.533551 1089.1396 320.96333 1134.29456 320.96333zM919.279296 333.316934C868.828802 333.316934 826.392702 368.320343 826.392702 414.788172 826.392702 466.064374 875.455513 497.510408 919.279296 497.510408 972.144591 497.510408 1011.69677 459.988127 1011.69677 416.35192 1011.69677 347.954635 945.387985 333.316934 919.279296 333.316934zM919.122921 341.135671C948.592904 341.135671 979.17082 360.291564 979.17082 414.944547 979.17082 467.052863 950.891663 488.440674 919.435671 488.440674 885.440128 488.440674 860.32602 467.201619 860.32602 414.788172 860.32602 356.4973 894.377019 341.135671 919.122921 341.135671zM1258.51351 466.020902L1257.04873 494.679625 1284.57068 497.337996 1288.37709 467.35992 1258.51351 466.020902zM1291.56227 442.274523L1313.50001 269.500003 1267.83859 283.57373 1259.79188 441.009338 1291.56227 442.274523z"/>
  </g>
</svg>
