<svg xmlns="http://www.w3.org/2000/svg" width="1000" height="243" viewBox="0 0 1000 243">
  <g fill="#FFFFFF">
    <polygon points="132.246 242.099 93.465 242.099 93.465 152.574 .5 26.927 40.923 26.927 121.456 135.999 201.442 26.927 222.865 26.927 132.246 150.229"/>
    <path d="M234.123856,56.9673213 L153.043555,215.844055 L168.133717,215.844055 L193.544612,164.553141 L266.571615,164.553141 L291.122448,215.844055 L321.068211,215.844055 L242.020781,56.9673213 L234.123856,56.9673213 Z M230.527238,91.9170751 L260.942124,154.545158 L199.095915,154.545158 L230.527238,91.9170751 Z"/>
    <polygon points="333.656 230.84 333.656 49.445 367.433 49.445 367.433 132.011 465.011 132.011 465.011 49.445 498.788 49.445 498.788 230.84 465.011 230.84 465.011 143.27 367.433 143.27 367.433 230.84"/>
    <path d="M817.479815 43.0499697C752.292016 44.472054 710.05037 90.4003653 710.05037 140.002307 710.05037 204.361895 772.719923 237.267394 820.607309 237.267394 869.63119 237.267394 930.382375 204.581508 930.382375 140.784181 930.382375 73.3578833 870.951556 43.0499697 820.607309 43.0499697 819.5611 43.0499697 818.51454 43.0274517 817.479815 43.0499697zM820.29456 51.9633297C862.26614 51.9633297 891.288691 84.0420684 891.288691 139.689557 891.288691 204.608867 854.369541 226.946661 820.607309 226.946661 775.0261 226.946661 748.831305 193.017634 748.831305 138.751309 748.831305 88.5335512 775.139603 51.9633297 820.29456 51.9633297zM605.279296 64.316934C554.828802 64.316934 512.392702 99.3203431 512.392702 145.788172 512.392702 197.064374 561.455513 228.510408 605.279296 228.510408 658.144591 228.510408 697.696766 190.988127 697.696766 147.35192 697.696766 78.9546352 631.387985 64.316934 605.279296 64.316934zM605.122921 72.1356708C634.592904 72.1356708 665.17082 91.2915637 665.17082 145.944547 665.17082 198.052863 636.891663 219.440674 605.435671 219.440674 571.440128 219.440674 546.32602 198.201619 546.32602 145.788172 546.32602 87.4972996 580.377019 72.1356708 605.122921 72.1356708zM944.51351 197.020902L943.048729 225.679625 970.570683 228.337996 974.377094 198.35992 944.51351 197.020902zM977.562272 173.274523L999.500009.500003282 953.838586 14.5737297 945.79188 172.009338 977.562272 173.274523z"/>
  </g>
</svg>
